<?xml version="1.0" encoding="UTF-8" standalone="no"?>
<svg
   xmlns:dc="http://purl.org/dc/elements/1.1/"
   xmlns:cc="http://creativecommons.org/ns#"
   xmlns:rdf="http://www.w3.org/1999/02/22-rdf-syntax-ns#"
   xmlns:svg="http://www.w3.org/2000/svg"
   xmlns="http://www.w3.org/2000/svg"
   viewBox="0 0 442.90243 293.66522"
   height="293.66522"
   width="442.90244"
   xml:space="preserve"
   id="svg2"
   version="1.1"><metadata
     id="metadata8"><rdf:RDF><cc:Work
         rdf:about=""><dc:format>image/svg+xml</dc:format><dc:type
           rdf:resource="http://purl.org/dc/dcmitype/StillImage" /></cc:Work></rdf:RDF></metadata><defs
     id="defs6" /><g
     transform="matrix(1.3333333,0,0,-1.3333333,-122.5649,1023.0502)"
     id="g10"><g
       transform="translate(194.654,673.017)"
       id="g12"><g
         id="g14"><g
           id="g16"><g
             id="g18"><g
               id="g20"><path
                 id="path22"
                 style="fill:none;stroke:#000000;stroke-width:0.797;stroke-linecap:butt;stroke-linejoin:miter;stroke-miterlimit:10;stroke-dasharray:none;stroke-opacity:1"
                 d="M 23.61264,0 -23.61263,27.77963 V -27.77963 Z" /></g><g
               transform="translate(-23.612,11.399)"
               id="g24"><g
                 transform="translate(-171.042,-684.416)"
                 id="g26"><text
                   id="text30"
                   style="font-variant:normal;font-weight:normal;font-size:9.9626px;font-family:CMBSY10;-inkscape-font-specification:CMBSY10;writing-mode:lr-tb;fill:#000000;fill-opacity:1;fill-rule:nonzero;stroke:none"
                   transform="matrix(1,0,0,-1,174.363,684.416)"><tspan
                     id="tspan28"
                     y="0"
                     x="0">−</tspan></text><g
                   transform="translate(171.042,684.416)"
                   id="g32" /></g><g
                 transform="translate(23.612,-11.399)"
                 id="g34" /></g><g
               transform="translate(-23.612,-16.38)"
               id="g36"><g
                 transform="translate(-171.042,-656.637)"
                 id="g38"><text
                   id="text42"
                   style="font-variant:normal;font-weight:normal;font-size:9.9626px;font-family:CMBX10;-inkscape-font-specification:CMBX10;writing-mode:lr-tb;fill:#000000;fill-opacity:1;fill-rule:nonzero;stroke:none"
                   transform="matrix(1,0,0,-1,174.363,656.637)"><tspan
                     id="tspan40"
                     y="0"
                     x="0">+</tspan></text><g
                   transform="translate(171.042,656.637)"
                   id="g44" /></g><g
                 transform="translate(23.612,16.38)"
                 id="g46" /></g><path
               id="path48"
               style="fill:none;stroke:#000000;stroke-width:0.3985;stroke-linecap:square;stroke-linejoin:miter;stroke-miterlimit:10;stroke-dasharray:none;stroke-opacity:1"
               d="m -33.7325,13.88982 h 10.11987 M -33.7325,-13.88982 h 10.11987 M 33.7325,0 H 23.61263" /><g
               transform="translate(-9.414,-3.044)"
               id="g50"><g
                 id="g52"><g
                   transform="translate(-185.24,-669.973)"
                   id="g54"><text
                     id="text58"
                     style="font-variant:normal;font-weight:normal;font-size:9.9626px;font-family:CMTT10;-inkscape-font-specification:CMTT10;writing-mode:lr-tb;fill:#000000;fill-opacity:1;fill-rule:nonzero;stroke:none"
                     transform="matrix(1,0,0,-1,185.24,669.973)"><tspan
                       id="tspan56"
                       y="0"
                       x="0 5.2303648 10.46073">OA1</tspan></text><g
                     transform="translate(185.24,669.973)"
                     id="g60" /></g></g><g
                 transform="translate(9.414,3.044)"
                 id="g62" /></g></g><path
             id="path64"
             style="fill:none;stroke:#000000;stroke-width:0.3985;stroke-linecap:butt;stroke-linejoin:miter;stroke-miterlimit:10;stroke-dasharray:none;stroke-opacity:1"
             d="m -33.7325,13.88982 v 0.19925 m 0,-0.19925 2e-5,14.17338 m 0,0 -2e-5,14.17342 m 0,-0.19925 v 0.19925 h 0.19925 m -0.19925,0 h 17.85831 m 31.74838,0 H 33.7325 m -0.19925,0 h 0.19925 v -0.19925 m 0,0.19925 -2e-5,-21.11832 m 0,0 L 33.7325,0 m 0,0.19925 V 0" /><g
             id="g66" /><g
             id="g68" /><g
             id="g70"><g
               transform="rotate(90,-30.8975,-2.8345)"
               id="g72"><g
                 id="g74" /><g
                 transform="translate(33.732,-28.063)"
                 id="g76" /></g></g><g
             id="g78" /><g
             id="g80" /><g
             id="g82" /><g
             id="g84" /><g
             id="g86" /><g
             id="g88"><path
               id="path90"
               style="fill:none;stroke:#000000;stroke-width:0.797;stroke-linecap:butt;stroke-linejoin:bevel;stroke-miterlimit:10;stroke-dasharray:none;stroke-opacity:1"
               d="m -16.27269,42.23662 3.07741,5.95285 5.35782,-11.9057 5.35782,11.9057 5.3578,-11.9057 5.3578,11.9057 5.35782,-11.9057 2.67891,5.95285" /><g
               transform="translate(0,42.236)"
               id="g92"><g
                 id="g94" /><g
                 transform="translate(0,-42.236)"
                 id="g96" /></g></g><g
             id="g98" /><g
             id="g100" /><g
             id="g102" /><g
             id="g104"><g
               transform="translate(-3.82,25.711)"
               id="g106"><g
                 id="g108"><g
                   transform="translate(-190.834,-698.728)"
                   id="g110"><text
                     id="text114"
                     style="font-variant:normal;font-weight:normal;font-size:9.9626px;font-family:CMMI10;-inkscape-font-specification:CMMI10;writing-mode:lr-tb;fill:#000000;fill-opacity:1;fill-rule:nonzero;stroke:none"
                     transform="matrix(1,0,0,-1,190.834,698.728)"><tspan
                       id="tspan112"
                       y="0"
                       x="0">R</tspan></text><g
                     transform="translate(190.834,698.728)"
                     id="g116" /></g></g><g
                 transform="translate(3.82,-25.711)"
                 id="g118" /></g></g><g
             id="g120" /><g
             id="g122" /><g
             id="g124"><g
               transform="rotate(-90,27.425,-6.307)"
               id="g126"><g
                 id="g128" /><g
                 transform="translate(-33.732,-21.118)"
                 id="g130" /></g></g><g
             id="g132" /><g
             id="g134" /><path
             id="path136"
             style="fill:none;stroke:#000000;stroke-width:0.3985;stroke-linecap:butt;stroke-linejoin:miter;stroke-miterlimit:10;stroke-dasharray:none;stroke-opacity:1"
             d="m -33.7325,42.23662 v 0.19925 m 0,-0.19925 2e-5,14.1734 m 0,0 -2e-5,14.17342 m 0,-0.19925 v 0.19925 h 0.19925 m -0.19925,0 29.76402,-2e-5 m 7.93696,0 29.76402,2e-5 m -0.19925,0 h 0.19925 v -0.19925 m 0,0.19925 -2e-5,-35.29174 m 0,0 L 33.7325,0 m 0,0.19925 V 0" /><g
             id="g138" /><g
             id="g140" /><g
             id="g142"><g
               transform="rotate(90,-45.0705,11.3385)"
               id="g144"><g
                 id="g146" /><g
                 transform="translate(33.732,-56.409)"
                 id="g148" /></g></g><g
             id="g150" /><g
             id="g152" /><g
             id="g154" /><g
             id="g156" /><g
             id="g158" /><g
             id="g160"><path
               id="path162"
               style="fill:none;stroke:#000000;stroke-width:0.797;stroke-linecap:butt;stroke-linejoin:miter;stroke-miterlimit:10;stroke-dasharray:none;stroke-opacity:1"
               d="M -3.96848,82.48914 V 58.6777 M 3.96848,82.48914 V 58.6777" /><g
               transform="translate(0,70.582)"
               id="g164"><g
                 id="g166" /><g
                 transform="translate(0,-70.582)"
                 id="g168" /></g></g><g
             id="g170" /><g
             id="g172" /><g
             id="g174" /><g
             id="g176" /><g
             id="g178"><g
               transform="translate(-3.916,86.896)"
               id="g180"><g
                 id="g182"><g
                   transform="translate(-190.738,-759.913)"
                   id="g184"><text
                     id="text188"
                     style="font-variant:normal;font-weight:normal;font-size:9.9626px;font-family:CMMI10;-inkscape-font-specification:CMMI10;writing-mode:lr-tb;fill:#000000;fill-opacity:1;fill-rule:nonzero;stroke:none"
                     transform="matrix(1,0,0,-1,190.738,759.913)"><tspan
                       id="tspan186"
                       y="0"
                       x="0">C</tspan></text><g
                     transform="translate(190.738,759.913)"
                     id="g190" /></g></g><g
                 transform="translate(3.916,-86.896)"
                 id="g192" /></g></g><g
             id="g194" /><g
             id="g196" /><g
             id="g198"><g
               transform="rotate(-90,34.5115,0.7795)"
               id="g200"><g
                 id="g202" /><g
                 transform="translate(-33.732,-35.291)"
                 id="g204" /></g></g><g
             id="g206" /><g
             id="g208" /><path
             id="path210"
             style="fill:none;stroke:#000000;stroke-width:0.3985;stroke-linecap:butt;stroke-linejoin:miter;stroke-miterlimit:10;stroke-dasharray:none;stroke-opacity:1"
             d="m -33.7325,-13.88982 v -0.19925 m 0,0.19925 2e-5,-29.48065 m 0,-11.9057 -2e-5,-29.48067 m 0,0.19927 v -0.19927" /><g
             id="g212" /><g
             id="g214" /><g
             id="g216"><path
               id="path218"
               style="fill:none;stroke:#000000;stroke-width:0.3985;stroke-linecap:butt;stroke-linejoin:miter;stroke-miterlimit:10;stroke-dasharray:none;stroke-opacity:1"
               d="m -33.73248,-47.35887 v 3.9884 m 0,-7.9173 v -3.9884" /><path
               id="path220"
               style="fill:none;stroke:#000000;stroke-width:0.797;stroke-linecap:butt;stroke-linejoin:miter;stroke-miterlimit:10;stroke-dasharray:none;stroke-opacity:1"
               d="M -21.82677,-47.35887 H -45.6382" /><path
               id="path222"
               style="fill:none;stroke:#000000;stroke-width:2.39102;stroke-linecap:butt;stroke-linejoin:miter;stroke-miterlimit:10;stroke-dasharray:none;stroke-opacity:1"
               d="m -27.77963,-51.28777 h -11.9057" /><g
               transform="matrix(0,1,1,0,-33.732,-49.323)"
               id="g224"><g
                 id="g226" /><g
                 transform="translate(33.732,49.323)"
                 id="g228" /></g></g><g
             id="g230" /><g
             id="g232" /><g
             id="g234"><g
               transform="translate(-33.732,-84.756)"
               id="g236"><g
                 id="g238" /><g
                 transform="translate(33.732,84.756)"
                 id="g240" /></g><g
               id="g242"><g
                 id="g244"><path
                   id="path246"
                   style="fill:none;stroke:#000000;stroke-width:0.3985;stroke-linecap:butt;stroke-linejoin:miter;stroke-miterlimit:10;stroke-dasharray:none;stroke-opacity:1"
                   d="M -33.7325,-84.75684 V -96.66241" /><path
                   id="path248"
                   style="fill:none;stroke:#000000;stroke-width:0.797;stroke-linecap:butt;stroke-linejoin:miter;stroke-miterlimit:10;stroke-dasharray:none;stroke-opacity:1"
                   d="m -39.68535,-96.66241 h 11.9057 m -9.92132,-1.98424 h 7.93695 m -6.44881,-1.98438 h 4.96066" /></g></g></g><path
             id="path250"
             style="fill:none;stroke:#000000;stroke-width:0.3985;stroke-linecap:butt;stroke-linejoin:miter;stroke-miterlimit:10;stroke-dasharray:none;stroke-opacity:1"
             d="m -33.7325,13.88982 h -0.19925 m 0.19925,0 -16.44107,-2e-5 m -23.81145,0 -16.4411,2e-5 m 0.19925,0 h -0.19925 v -0.19925 m 0,0.19925 2e-5,-37.41761 m 0,-23.81144 -2e-5,-37.41761 m 0,0.19927 v -0.19927" /><g
             id="g252" /><g
             id="g254" /><g
             id="g256"><path
               id="path258"
               style="fill:none;stroke:#000000;stroke-width:0.797;stroke-linecap:butt;stroke-linejoin:bevel;stroke-miterlimit:10;stroke-dasharray:none;stroke-opacity:1"
               d="m -49.77507,14.0492 c 0,-3.28771 -1.63475,-5.95286 -3.65135,-5.95286 -2.0166,0 -3.65134,2.66515 -3.65134,5.95286 0,1.64375 0.66625,2.97627 1.48813,2.97627 0.82188,0 1.48814,-1.33252 1.48814,-2.97627 0,-3.28771 -1.63475,-5.95286 -3.65135,-5.95286 -2.0166,0 -3.65135,2.66515 -3.65135,5.95286 0,1.64375 0.66626,2.97627 1.48814,2.97627 0.82187,0 1.48813,-1.33252 1.48813,-2.97627 0,-3.28771 -1.63473,-5.95286 -3.65135,-5.95286 -2.0166,0 -3.65133,2.66515 -3.65133,5.95286 0,1.64375 0.66625,2.97627 1.48812,2.97627 0.82188,0 1.48815,-1.33252 1.48815,-2.97627 0,-3.28771 -1.63475,-5.95286 -3.65136,-5.95286 -2.0166,0 -3.65135,2.66515 -3.65135,5.95286 0,1.64375 0.66626,2.97627 1.48814,2.97627 0.82189,0 1.48814,-1.33252 1.48814,-2.97627 0,-3.28771 -1.63474,-5.95286 -3.65134,-5.95286 -2.0166,0 -3.65135,2.66515 -3.65135,5.95286" /><g
               transform="rotate(180,-31.039,6.945)"
               id="g260"><g
                 id="g262" /><g
                 transform="translate(62.078,-13.89)"
                 id="g264" /></g></g><g
             id="g266" /><g
             id="g268" /><g
             id="g270" /><g
             id="g272"><g
               transform="translate(-65.468,-2.636)"
               id="g274"><g
                 id="g276"><g
                   transform="translate(-129.186,-670.381)"
                   id="g278"><text
                     id="text282"
                     style="font-variant:normal;font-weight:normal;font-size:9.9626px;font-family:CMMI10;-inkscape-font-specification:CMMI10;writing-mode:lr-tb;fill:#000000;fill-opacity:1;fill-rule:nonzero;stroke:none"
                     transform="matrix(1,0,0,-1,129.186,670.381)"><tspan
                       id="tspan280"
                       y="0"
                       x="0">L</tspan></text><g
                     transform="translate(129.186,670.381)"
                     id="g284" /></g></g><g
                 transform="translate(65.468,2.636)"
                 id="g286" /></g></g><g
             id="g288" /><g
             id="g290" /><g
             id="g292" /><g
             id="g294"><path
               id="path296"
               style="fill:#fff200;fill-opacity:1;fill-rule:nonzero;stroke:#000000;stroke-width:0.797;stroke-linecap:butt;stroke-linejoin:miter;stroke-miterlimit:10;stroke-dasharray:none;stroke-opacity:1"
               d="m -78.52039,-35.4335 c 0,6.5754 -5.33029,11.90571 -11.90571,11.90571 -6.57543,0 -11.90572,-5.33031 -11.90572,-11.90571 0,-6.57543 5.33029,-11.90573 11.90572,-11.90573 6.57542,0 11.90571,5.3303 11.90571,11.90573 z" /><g
               id="g298"><path
                 id="path300"
                 style="fill:none;stroke:#000000;stroke-width:0.797;stroke-linecap:butt;stroke-linejoin:miter;stroke-miterlimit:10;stroke-dasharray:none;stroke-opacity:1"
                 d="m -96.37895,-35.4335 c 0.9703,1.5239 1.89895,2.97642 2.97642,2.97642 1.07746,0 2.00611,-1.45251 2.97643,-2.97642 0.9703,-1.52391 1.89895,-2.97643 2.97642,-2.97643 1.07746,0 2.00611,1.4525 2.97643,2.97643" /></g><g
               transform="rotate(-90,-62.929,27.496)"
               id="g302"><g
                 id="g304" /><g
                 transform="translate(90.425,35.433)"
                 id="g306" /></g></g><g
             id="g308" /><g
             id="g310" /><g
             id="g312" /><g
             id="g314"><g
               transform="translate(-75.72,-37.578)"
               id="g316"><g
                 id="g318"><g
                   transform="translate(-118.934,-635.439)"
                   id="g320"><text
                     id="text324"
                     style="font-variant:normal;font-weight:normal;font-size:9.9626px;font-family:CMMI10;-inkscape-font-specification:CMMI10;writing-mode:lr-tb;fill:#000000;fill-opacity:1;fill-rule:nonzero;stroke:none"
                     transform="matrix(1,0,0,-1,118.934,635.439)"><tspan
                       id="tspan322"
                       y="0"
                       x="0">v</tspan></text><text
                     id="text328"
                     style="font-variant:normal;font-weight:normal;font-size:6.9738px;font-family:CMMI7;-inkscape-font-specification:CMMI7;writing-mode:lr-tb;fill:#000000;fill-opacity:1;fill-rule:nonzero;stroke:none"
                     transform="matrix(1,0,0,-1,123.763,633.945)"><tspan
                       id="tspan326"
                       y="0"
                       x="0">s</tspan></text><g
                     transform="translate(118.934,635.439)"
                     id="g330" /></g></g><g
                 transform="translate(75.72,37.578)"
                 id="g332" /></g></g><g
             id="g334"><g
               transform="translate(-90.425,-84.756)"
               id="g336"><g
                 id="g338" /><g
                 transform="translate(90.425,84.756)"
                 id="g340" /></g><g
               id="g342"><g
                 id="g344"><path
                   id="path346"
                   style="fill:none;stroke:#000000;stroke-width:0.3985;stroke-linecap:butt;stroke-linejoin:miter;stroke-miterlimit:10;stroke-dasharray:none;stroke-opacity:1"
                   d="M -90.42612,-84.75684 V -96.66241" /><path
                   id="path348"
                   style="fill:none;stroke:#000000;stroke-width:0.797;stroke-linecap:butt;stroke-linejoin:miter;stroke-miterlimit:10;stroke-dasharray:none;stroke-opacity:1"
                   d="m -96.37897,-96.66241 h 11.9057 m -9.92132,-1.98424 h 7.93695 m -6.44881,-1.98438 h 4.96065" /></g></g></g><path
             id="path350"
             style="fill:none;stroke:#000000;stroke-width:0.3985;stroke-linecap:butt;stroke-linejoin:miter;stroke-miterlimit:10;stroke-dasharray:none;stroke-opacity:1"
             d="m 33.7325,0 h 0.19925 M 33.7325,0 h 12.4726 m 31.74839,0 h 12.47263 m -0.19925,0 h 0.19925 v 0.19925 m 0,-0.19925 -2e-5,16.44109 m 0,23.81143 2e-5,16.4411 m 0,-0.19927 v 0.19927" /><g
             id="g352" /><g
             id="g354" /><g
             id="g356"><path
               id="path358"
               style="fill:none;stroke:#000000;stroke-width:0.797;stroke-linecap:butt;stroke-linejoin:bevel;stroke-miterlimit:10;stroke-dasharray:none;stroke-opacity:1"
               d="m 45.8066,0 3.0774,5.95285 5.35782,-11.9057 5.35782,11.9057 5.35782,-11.9057 5.3578,11.9057 5.35782,-11.9057 L 78.35199,0" /><g
               transform="translate(62.079)"
               id="g360"><g
                 id="g362" /><g
                 transform="translate(-62.079)"
                 id="g364" /></g></g><g
             id="g366" /><g
             id="g368" /><g
             id="g370" /><g
             id="g372" /><g
             id="g374"><g
               transform="translate(56.167,9.765)"
               id="g376"><g
                 id="g378"><g
                   transform="translate(-250.821,-682.782)"
                   id="g380"><text
                     id="text384"
                     style="font-variant:normal;font-weight:normal;font-size:9.9626px;font-family:CMMI10;-inkscape-font-specification:CMMI10;writing-mode:lr-tb;fill:#000000;fill-opacity:1;fill-rule:nonzero;stroke:none"
                     transform="matrix(1,0,0,-1,250.821,682.782)"><tspan
                       id="tspan382"
                       y="0"
                       x="0">R</tspan></text><text
                     id="text388"
                     style="font-variant:normal;font-weight:normal;font-size:6.9738px;font-family:CMMI7;-inkscape-font-specification:CMMI7;writing-mode:lr-tb;fill:#000000;fill-opacity:1;fill-rule:nonzero;stroke:none"
                     transform="matrix(1,0,0,-1,258.386,681.288)"><tspan
                       id="tspan386"
                       y="0"
                       x="0">s</tspan></text><g
                     transform="translate(250.821,682.782)"
                     id="g390" /></g></g><g
                 transform="translate(-56.167,-9.765)"
                 id="g392" /></g></g><g
             id="g394" /><g
             id="g396" /><g
             id="g398" /><g
             id="g400"><path
               id="path402"
               style="fill:none;stroke:#000000;stroke-width:0.797;stroke-linecap:butt;stroke-linejoin:miter;stroke-miterlimit:10;stroke-dasharray:none;stroke-opacity:1"
               d="m 78.52039,28.3468 c 0,6.57543 5.33029,11.90572 11.90571,11.90572 6.57543,0 11.90572,-5.33029 11.90572,-11.90572 0,-6.57542 -5.33029,-11.90571 -11.90572,-11.90571 -6.57542,0 -11.90571,5.33029 -11.90571,11.90571 z" /><path
               id="path404"
               style="fill:none;stroke:#000000;stroke-width:0.797;stroke-linecap:butt;stroke-linejoin:miter;stroke-miterlimit:10;stroke-dasharray:none;stroke-opacity:1"
               d="M 90.4261,36.68076 V 20.01285" /><g
               id="g406"><g
                 transform="matrix(0,-1,-1,0,90.425,22.394)"
                 id="g408"><g
                   id="g410" /><g
                   transform="translate(-90.425,-22.394)"
                   id="g412" /></g><g
                 id="g414"><g
                   id="g416"><path
                     id="path418"
                     style="fill:#000000;fill-opacity:1;fill-rule:nonzero;stroke:#000000;stroke-width:0.797;stroke-linecap:butt;stroke-linejoin:miter;stroke-miterlimit:10;stroke-dasharray:none;stroke-opacity:1"
                     d="m 90.4261,24.13017 h 1.98425 l -1.98425,-4.21655 -1.98425,4.21655 h 1.98425" /></g></g></g><g
               transform="matrix(0,-1,-1,0,90.425,28.346)"
               id="g420"><g
                 id="g422" /><g
                 transform="translate(-90.425,-28.346)"
                 id="g424" /></g></g><g
             id="g426" /><g
             id="g428" /><g
             id="g430" /><g
             id="g432"><g
               transform="translate(105.13,26.202)"
               id="g434"><g
                 id="g436"><g
                   transform="translate(-299.784,-699.219)"
                   id="g438"><text
                     id="text442"
                     style="font-variant:normal;font-weight:normal;font-size:9.9626px;font-family:CMMI10;-inkscape-font-specification:CMMI10;writing-mode:lr-tb;fill:#000000;fill-opacity:1;fill-rule:nonzero;stroke:none"
                     transform="matrix(1,0,0,-1,299.784,699.219)"><tspan
                       id="tspan440"
                       y="0"
                       x="0">I</tspan></text><text
                     id="text446"
                     style="font-variant:normal;font-weight:normal;font-size:6.9738px;font-family:CMMI7;-inkscape-font-specification:CMMI7;writing-mode:lr-tb;fill:#000000;fill-opacity:1;fill-rule:nonzero;stroke:none"
                     transform="matrix(1,0,0,-1,304.163,697.724)"><tspan
                       id="tspan444"
                       y="0"
                       x="0">B</tspan></text><g
                     transform="translate(299.784,699.219)"
                     id="g448" /></g></g><g
                 transform="translate(-105.13,-26.202)"
                 id="g450" /></g></g><g
             id="g452"><g
               transform="translate(90.425,72.567)"
               id="g454"><g
                 id="g456" /><g
                 transform="translate(-90.425,-72.567)"
                 id="g458" /></g><g
               id="g460"><g
                 id="g462"><path
                   id="path464"
                   style="fill:none;stroke:#000000;stroke-width:0.797;stroke-linecap:butt;stroke-linejoin:miter;stroke-miterlimit:10;stroke-dasharray:none;stroke-opacity:1"
                   d="m 86.45764,63.04318 3.96848,5.55586 3.96847,-5.55586" /><path
                   id="path466"
                   style="fill:none;stroke:#000000;stroke-width:0.3985;stroke-linecap:butt;stroke-linejoin:miter;stroke-miterlimit:10;stroke-dasharray:none;stroke-opacity:1"
                   d="M 90.42612,56.69362 V 68.59904" /></g></g></g><path
             id="path468"
             style="fill:none;stroke:#000000;stroke-width:0.3985;stroke-linecap:butt;stroke-linejoin:miter;stroke-miterlimit:10;stroke-dasharray:none;stroke-opacity:1"
             d="m 90.42612,0 v -0.19925 m 0,0.19925 -2e-5,-20.40985 m 0,-15.8739 2e-5,-20.40987 m 0,0.19927 v -0.19927 -0.19925 m 0,0.19925 -2e-5,-12.47261 m 0,-31.74838 2e-5,-12.47263 m 0,0.19927 v -0.19927" /><g
             id="g470" /><g
             id="g472" /><g
             id="g474"><g
               id="g476"><path
                 id="path478"
                 style="fill:none;stroke:#000000;stroke-width:0.797;stroke-linecap:butt;stroke-linejoin:miter;stroke-miterlimit:10;stroke-dasharray:none;stroke-opacity:1"
                 d="m 90.4261,-36.28375 9.92134,15.8739 H 80.50476 Z" /><g
                 id="g480" /></g><path
               id="path482"
               style="fill:none;stroke:#000000;stroke-width:0.797;stroke-linecap:butt;stroke-linejoin:miter;stroke-miterlimit:10;stroke-dasharray:none;stroke-opacity:1"
               d="m 80.50476,-36.28375 h 19.84268" /><g
               transform="rotate(-90,31.0395,-59.3855)"
               id="g484"><g
                 id="g486" /><g
                 transform="translate(-90.425,28.346)"
                 id="g488" /></g></g><g
             id="g490" /><g
             id="g492" /><g
             id="g494"><g
               transform="translate(90.425)"
               id="g496"><g
                 id="g498" /><g
                 transform="translate(-90.425)"
                 id="g500" /></g><g
               id="g502"><g
                 id="g504"><path
                   id="path506"
                   style="fill:#000000;fill-opacity:1;fill-rule:nonzero;stroke:#000000;stroke-width:0.3985;stroke-linecap:butt;stroke-linejoin:miter;stroke-miterlimit:10;stroke-dasharray:none;stroke-opacity:1"
                   d="m 92.01326,0 c 0,0.87656 -0.71059,1.58714 -1.58714,1.58714 -0.87656,0 -1.58715,-0.71058 -1.58715,-1.58714 0,-0.87656 0.71059,-1.58714 1.58715,-1.58714 0.87655,0 1.58714,0.71058 1.58714,1.58714 z" /></g></g></g><g
             id="g508" /><g
             id="g510"><g
               transform="translate(102.947,-30.491)"
               id="g512"><g
                 id="g514"><g
                   transform="translate(-297.601,-642.526)"
                   id="g516"><text
                     id="text520"
                     style="font-variant:normal;font-weight:normal;font-size:9.9626px;font-family:CMMI10;-inkscape-font-specification:CMMI10;writing-mode:lr-tb;fill:#000000;fill-opacity:1;fill-rule:nonzero;stroke:none"
                     transform="matrix(1,0,0,-1,297.601,642.526)"><tspan
                       id="tspan518"
                       y="0"
                       x="0">D</tspan></text><g
                     transform="translate(297.601,642.526)"
                     id="g522" /></g></g><g
                 transform="translate(-102.947,30.491)"
                 id="g524" /></g></g><g
             id="g526" /><g
             id="g528" /><g
             id="g530" /><g
             id="g532"><path
               id="path534"
               style="fill:none;stroke:#000000;stroke-width:0.797;stroke-linecap:butt;stroke-linejoin:bevel;stroke-miterlimit:10;stroke-dasharray:none;stroke-opacity:1"
               d="m 90.4261,-68.76772 5.95285,-3.07742 -11.9057,-5.35782 11.9057,-5.3578 -11.9057,-5.35782 11.9057,-5.35782 -11.9057,-5.35782 5.95285,-2.67891" /><g
               transform="rotate(-90,2.693,-87.732)"
               id="g536"><g
                 id="g538" /><g
                 transform="translate(-90.425,85.039)"
                 id="g540" /></g></g><g
             id="g542" /><g
             id="g544" /><g
             id="g546" /><g
             id="g548"><g
               transform="translate(98.582,-87.184)"
               id="g550"><g
                 id="g552"><g
                   transform="translate(-293.236,-585.833)"
                   id="g554"><text
                     id="text558"
                     style="font-variant:normal;font-weight:normal;font-size:9.9626px;font-family:CMMI10;-inkscape-font-specification:CMMI10;writing-mode:lr-tb;fill:#000000;fill-opacity:1;fill-rule:nonzero;stroke:none"
                     transform="matrix(1,0,0,-1,293.236,585.833)"><tspan
                       id="tspan556"
                       y="0"
                       x="0">R</tspan></text><text
                     id="text562"
                     style="font-variant:normal;font-weight:normal;font-size:6.9738px;font-family:CMMI7;-inkscape-font-specification:CMMI7;writing-mode:lr-tb;fill:#000000;fill-opacity:1;fill-rule:nonzero;stroke:none"
                     transform="matrix(1,0,0,-1,300.8,584.339)"><tspan
                       id="tspan560"
                       y="0"
                       x="0">m</tspan></text><g
                     transform="translate(293.236,585.833)"
                     id="g564" /></g></g><g
                 transform="translate(-98.582,87.184)"
                 id="g566" /></g></g><g
             id="g568"><g
               transform="translate(90.425,-129.259)"
               id="g570"><g
                 id="g572" /><g
                 transform="translate(-90.425,129.259)"
                 id="g574" /></g><g
               id="g576"><g
                 id="g578"><path
                   id="path580"
                   style="fill:none;stroke:#000000;stroke-width:0.797;stroke-linecap:butt;stroke-linejoin:miter;stroke-miterlimit:10;stroke-dasharray:none;stroke-opacity:1"
                   d="m 86.45764,-119.73682 3.96848,-5.55584 3.96847,5.55584" /><path
                   id="path582"
                   style="fill:none;stroke:#000000;stroke-width:0.3985;stroke-linecap:butt;stroke-linejoin:miter;stroke-miterlimit:10;stroke-dasharray:none;stroke-opacity:1"
                   d="m 90.42612,-113.38724 v -11.90542" /></g></g></g><path
             id="path584"
             style="fill:none;stroke:#000000;stroke-width:0.3985;stroke-linecap:butt;stroke-linejoin:miter;stroke-miterlimit:10;stroke-dasharray:none;stroke-opacity:1"
             d="m 90.42612,0 h 28.34681" /><g
             id="g586"><path
               id="path588"
               style="fill:none;stroke:#000000;stroke-width:0.3985;stroke-linecap:butt;stroke-linejoin:miter;stroke-miterlimit:10;stroke-dasharray:none;stroke-opacity:1"
               d="M 142.58438,22.0263 V 8.73067 L 130.67867,3.27391" /><g
               id="g590"><path
                 id="path592"
                 style="fill:none;stroke:#000000;stroke-width:0.797;stroke-linecap:butt;stroke-linejoin:miter;stroke-miterlimit:10;stroke-dasharray:none;stroke-opacity:1"
                 d="M 130.67867,8.73067 V -8.73067" /></g><path
               id="path594"
               style="fill:none;stroke:#000000;stroke-width:0.3985;stroke-linecap:butt;stroke-linejoin:miter;stroke-miterlimit:10;stroke-dasharray:none;stroke-opacity:1"
               d="m 130.67867,-3.27391 11.90571,-5.45676 V -22.0263" /><g
               id="g596"><g
                 transform="matrix(0.90903,-0.41663,0.41663,0.90903,136.63,-6.002)"
                 id="g598"><g
                   id="g600" /><g
                   transform="translate(-136.63,6.002)"
                   id="g602" /></g><g
                 id="g604"><g
                   id="g606"><path
                     id="path608"
                     style="fill:#000000;fill-opacity:1;fill-rule:nonzero;stroke:none"
                     d="m 134.87213,-5.19592 0.95274,2.07878 3.69271,-4.20789 -5.59821,0.05033 z" /></g></g></g><path
               id="path610"
               style="fill:none;stroke:#000000;stroke-width:0.3985;stroke-linecap:butt;stroke-linejoin:miter;stroke-miterlimit:10;stroke-dasharray:none;stroke-opacity:1"
               d="m 130.67867,0 h -12.105" /><g
               transform="translate(144.567)"
               id="g612"><g
                 id="g614" /><g
                 transform="translate(-144.567)"
                 id="g616" /></g></g><g
             id="g618"><g
               transform="translate(146.102)"
               id="g620"><g
                 id="g622" /><g
                 transform="translate(-146.102)"
                 id="g624" /></g></g><path
             id="path626"
             style="fill:none;stroke:#000000;stroke-width:0.3985;stroke-linecap:butt;stroke-linejoin:miter;stroke-miterlimit:10;stroke-dasharray:none;stroke-opacity:1"
             d="m 90.42612,-56.69362 h 28.34681" /><g
             id="g628"><path
               id="path630"
               style="fill:none;stroke:#000000;stroke-width:0.3985;stroke-linecap:butt;stroke-linejoin:miter;stroke-miterlimit:10;stroke-dasharray:none;stroke-opacity:1"
               d="M 142.58438,-34.6673 V -47.96294 L 130.67867,-53.4197" /><g
               id="g632"><path
                 id="path634"
                 style="fill:none;stroke:#000000;stroke-width:0.797;stroke-linecap:butt;stroke-linejoin:miter;stroke-miterlimit:10;stroke-dasharray:none;stroke-opacity:1"
                 d="M 130.67867,-47.96294 V -65.42429" /></g><path
               id="path636"
               style="fill:none;stroke:#000000;stroke-width:0.3985;stroke-linecap:butt;stroke-linejoin:miter;stroke-miterlimit:10;stroke-dasharray:none;stroke-opacity:1"
               d="m 130.67867,-59.96753 11.90571,-5.45676 v -13.29563" /><g
               id="g638"><g
                 transform="matrix(-0.90903,-0.41663,0.41663,-0.90903,136.63,-50.691)"
                 id="g640"><g
                   id="g642" /><g
                   transform="translate(-136.63,50.691)"
                   id="g644" /></g><g
                 id="g646"><g
                   id="g648"><path
                     id="path650"
                     style="fill:#000000;fill-opacity:1;fill-rule:nonzero;stroke:none"
                     d="m 138.39091,-49.88495 0.95276,-2.07878 -5.5982,-0.05032 3.69269,4.20788 z" /></g></g></g><path
               id="path652"
               style="fill:none;stroke:#000000;stroke-width:0.3985;stroke-linecap:butt;stroke-linejoin:miter;stroke-miterlimit:10;stroke-dasharray:none;stroke-opacity:1"
               d="m 130.67867,-56.69362 h -12.105" /><g
               transform="translate(144.567,-56.693)"
               id="g654"><g
                 id="g656" /><g
                 transform="translate(-144.567,56.693)"
                 id="g658" /></g></g><g
             id="g660"><g
               transform="translate(146.102,-56.693)"
               id="g662"><g
                 id="g664" /><g
                 transform="translate(-146.102,56.693)"
                 id="g666" /></g></g><path
             id="path668"
             style="fill:none;stroke:#000000;stroke-width:0.3985;stroke-linecap:butt;stroke-linejoin:miter;stroke-miterlimit:10;stroke-dasharray:none;stroke-opacity:1"
             d="m 142.58438,-21.82706 v -13.03949 m -1e-5,6.51975 h 0.19925 m -0.19925,0 35.4335,1e-5 m 0,0 35.43352,-1e-5 m -0.19925,0 h 0.19925" /><g
             id="g670" /><g
             id="g672" /><g
             id="g674"><g
               transform="translate(178.016,-28.346)"
               id="g676"><g
                 id="g678" /><g
                 transform="translate(-178.016,28.346)"
                 id="g680" /></g></g><g
             id="g682" /><g
             id="g684" /><g
             id="g686"><g
               transform="translate(142.583,-28.346)"
               id="g688"><g
                 id="g690" /><g
                 transform="translate(-142.583,28.346)"
                 id="g692" /></g><g
               id="g694"><g
                 id="g696"><path
                   id="path698"
                   style="fill:#000000;fill-opacity:1;fill-rule:nonzero;stroke:#000000;stroke-width:0.3985;stroke-linecap:butt;stroke-linejoin:miter;stroke-miterlimit:10;stroke-dasharray:none;stroke-opacity:1"
                   d="m 144.17151,-28.3468 c 0,0.87655 -0.71059,1.58714 -1.58714,1.58714 -0.87656,0 -1.58715,-0.71059 -1.58715,-1.58714 0,-0.87656 0.71059,-1.58714 1.58715,-1.58714 0.87655,0 1.58714,0.71058 1.58714,1.58714 z" /></g></g></g><g
             id="g700"><g
               transform="translate(213.449,-28.346)"
               id="g702"><g
                 id="g704" /><g
                 transform="translate(-213.449,28.346)"
                 id="g706" /></g><g
               id="g708"><g
                 id="g710"><path
                   id="path712"
                   style="fill:#ffffff;fill-opacity:1;fill-rule:nonzero;stroke:#000000;stroke-width:0.3985;stroke-linecap:butt;stroke-linejoin:miter;stroke-miterlimit:10;stroke-dasharray:none;stroke-opacity:1"
                   d="m 215.03853,-28.3468 c 0,0.87655 -0.71059,1.58714 -1.58714,1.58714 -0.87658,0 -1.58716,-0.71059 -1.58716,-1.58714 0,-0.87656 0.71058,-1.58714 1.58716,-1.58714 0.87655,0 1.58714,0.71058 1.58714,1.58714 z" /></g></g></g><g
             id="g714"><g
               transform="translate(216.968,-28.759)"
               id="g716"><g
                 id="g718"><g
                   transform="translate(-411.622,-644.258)"
                   id="g720"><text
                     id="text724"
                     style="font-variant:normal;font-weight:normal;font-size:9.9626px;font-family:CMMI10;-inkscape-font-specification:CMMI10;writing-mode:lr-tb;fill:#000000;fill-opacity:1;fill-rule:nonzero;stroke:none"
                     transform="matrix(1,0,0,-1,411.622,644.258)"><tspan
                       id="tspan722"
                       y="0"
                       x="0">v</tspan></text><text
                     id="text728"
                     style="font-variant:normal;font-weight:normal;font-size:6.9738px;font-family:CMMI7;-inkscape-font-specification:CMMI7;writing-mode:lr-tb;fill:#000000;fill-opacity:1;fill-rule:nonzero;stroke:none"
                     transform="matrix(1,0,0,-1,416.452,642.764)"><tspan
                       id="tspan726"
                       y="0"
                       x="0">o</tspan></text><text
                     id="text732"
                     style="font-variant:normal;font-weight:normal;font-size:4.9813px;font-family:CMMI5;-inkscape-font-specification:CMMI5;writing-mode:lr-tb;fill:#000000;fill-opacity:1;fill-rule:nonzero;stroke:none"
                     transform="matrix(1,0,0,-1,420.384,641.762)"><tspan
                       id="tspan730"
                       y="0"
                       x="0">Q</tspan></text><g
                     transform="translate(411.622,644.258)"
                     id="g734" /></g></g><g
                 transform="translate(-216.968,28.759)"
                 id="g736" /></g></g><path
             id="path738"
             style="fill:none;stroke:#000000;stroke-width:0.3985;stroke-linecap:butt;stroke-linejoin:miter;stroke-miterlimit:10;stroke-dasharray:none;stroke-opacity:1"
             d="m 178.01787,-28.34679 v -0.19925 m 0,0.19925 v -12.33082 m 0,-31.7484 v -12.33083 m 0,0.19927 v -0.19927" /><g
             id="g740" /><g
             id="g742" /><g
             id="g744"><path
               id="path746"
               style="fill:none;stroke:#000000;stroke-width:0.797;stroke-linecap:butt;stroke-linejoin:miter;stroke-miterlimit:10;stroke-dasharray:none;stroke-opacity:1"
               d="m 172.06502,-72.42601 v 31.7484 h 11.9057 v -31.7484 z" /><g
               transform="rotate(-90,60.7325,-117.2835)"
               id="g748"><g
                 id="g750" /><g
                 transform="translate(-178.016,56.551)"
                 id="g752" /></g></g><g
             id="g754" /><g
             id="g756" /><g
             id="g758"><g
               transform="translate(178.016,-28.346)"
               id="g760"><g
                 id="g762" /><g
                 transform="translate(-178.016,28.346)"
                 id="g764" /></g><g
               id="g766"><g
                 id="g768"><path
                   id="path770"
                   style="fill:#000000;fill-opacity:1;fill-rule:nonzero;stroke:#000000;stroke-width:0.3985;stroke-linecap:butt;stroke-linejoin:miter;stroke-miterlimit:10;stroke-dasharray:none;stroke-opacity:1"
                   d="m 179.60501,-28.34679 c 0,0.87656 -0.71059,1.58715 -1.58714,1.58715 -0.87657,0 -1.58714,-0.71059 -1.58714,-1.58715 0,-0.87655 0.71057,-1.58714 1.58714,-1.58714 0.87655,0 1.58714,0.71059 1.58714,1.58714 z" /></g></g></g><g
             id="g772" /><g
             id="g774"><g
               transform="translate(186.172,-58.696)"
               id="g776"><g
                 id="g778"><g
                   transform="translate(-380.826,-614.321)"
                   id="g780"><text
                     id="text784"
                     style="font-variant:normal;font-weight:normal;font-size:9.9626px;font-family:CMMI10;-inkscape-font-specification:CMMI10;writing-mode:lr-tb;fill:#000000;fill-opacity:1;fill-rule:nonzero;stroke:none"
                     transform="matrix(1,0,0,-1,380.826,614.321)"><tspan
                       id="tspan782"
                       y="0"
                       x="0">Z</tspan></text><text
                     id="text788"
                     style="font-variant:normal;font-weight:normal;font-size:6.9738px;font-family:CMMI7;-inkscape-font-specification:CMMI7;writing-mode:lr-tb;fill:#000000;fill-opacity:1;fill-rule:nonzero;stroke:none"
                     transform="matrix(1,0,0,-1,387.627,612.827)"><tspan
                       id="tspan786"
                       y="0"
                       x="0">L</tspan></text><g
                     transform="translate(380.826,614.321)"
                     id="g790" /></g></g><g
                 transform="translate(-186.172,58.696)"
                 id="g792" /></g></g><g
             id="g794"><g
               transform="translate(178.016,-84.756)"
               id="g796"><g
                 id="g798" /><g
                 transform="translate(-178.016,84.756)"
                 id="g800" /></g><g
               id="g802"><g
                 id="g804"><path
                   id="path806"
                   style="fill:none;stroke:#000000;stroke-width:0.3985;stroke-linecap:butt;stroke-linejoin:miter;stroke-miterlimit:10;stroke-dasharray:none;stroke-opacity:1"
                   d="M 178.01787,-84.75684 V -96.66241" /><path
                   id="path808"
                   style="fill:none;stroke:#000000;stroke-width:0.797;stroke-linecap:butt;stroke-linejoin:miter;stroke-miterlimit:10;stroke-dasharray:none;stroke-opacity:1"
                   d="m 172.06502,-96.66241 h 11.9057 m -9.92132,-1.98424 h 7.93694 m -6.4488,-1.98438 h 4.96064" /></g></g></g></g></g></g></g></svg>
